<?xml version="1.0" standalone="no"?><svg xmlns="http://www.w3.org/2000/svg" viewBox="0 0 1440 320"><path fill="#0099ff" fill-opacity="1" d="M0,32L18.5,69.3C36.9,107,74,181,111,197.3C147.7,213,185,171,222,160C258.5,149,295,171,332,170.7C369.2,171,406,149,443,154.7C480,160,517,192,554,208C590.8,224,628,224,665,197.3C701.5,171,738,117,775,112C812.3,107,849,149,886,149.3C923.1,149,960,107,997,90.7C1033.8,75,1071,85,1108,117.3C1144.6,149,1182,203,1218,229.3C1255.4,256,1292,256,1329,234.7C1366.2,213,1403,171,1422,149.3L1440,128L1440,320L1421.5,320C1403.1,320,1366,320,1329,320C1292.3,320,1255,320,1218,320C1181.5,320,1145,320,1108,320C1070.8,320,1034,320,997,320C960,320,923,320,886,320C849.2,320,812,320,775,320C738.5,320,702,320,665,320C627.7,320,591,320,554,320C516.9,320,480,320,443,320C406.2,320,369,320,332,320C295.4,320,258,320,222,320C184.6,320,148,320,111,320C73.8,320,37,320,18,320L0,320Z"></path></svg>